 http://www.imdb.com/title/tt1074638/
Idioma: Portugues-BR

General
Complete name                            : 007 Operação Skyfall TS XviD Dublado-YanKeeS.avi
Format                                   : AVI
Format/Info                              : Audio Video Interleave
File size                                : 910 MiB
Duration                                 : 2h 9mn
Overall bit rate                         : 982 Kbps
Writing application                      : VirtualDubMod 1.6.0.0 SURROUND (build 2560/release)
Writing library                          : VirtualDubMod build 2560/release

Video
ID                                       : 0
Format                                   : MPEG-4 Visual
Format profile                           : Advanced Simple@L5
Format settings, BVOP                    : 2
Format settings, QPel                    : No
Format settings, GMC                     : No warppoints
Format settings, Matrix                  : Default (H.263)
Codec ID                                 : XVID
Codec ID/Hint                            : XviD
Duration                                 : 2h 9mn
Bit rate                                 : 843 Kbps
Width                                    : 624 pixels
Height                                   : 336 pixels
Display aspect ratio                     : 1.85:1
Frame rate                               : 29.970 fps
Color space                              : YUV
Chroma subsampling                       : 4:2:0
Bit depth                                : 8 bits
Scan type                                : Progressive
Compression mode                         : Lossy
Bits/(Pixel*Frame)                       : 0.134
Stream size                              : 781 MiB (86%)
Writing library                          : XviD 1.2.1 (UTC 2008-12-04)

Audio
ID                                       : 1
Format                                   : MPEG Audio
Format version                           : Version 1
Format profile                           : Layer 3
Mode                                     : Joint stereo
Mode extension                           : MS Stereo
Codec ID                                 : 55
Codec ID/Hint                            : MP3
Duration                                 : 2h 9mn
Bit rate mode                            : Constant
Bit rate                                 : 128 Kbps
Channel(s)                               : 2 channels
Sampling rate                            : 48.0 KHz
Compression mode                         : Lossy
Stream size                              : 119 MiB (13%)
Alignment                                : Split accross interleaves
Interleave, duration                     : 33 ms (1.00 video frame)
Interleave, preload duration             : 500 ms
Writing library                          : LAME3.99r
Encoding settings                        : -m j -V 4 -q 2 -lowpass 17 -b 128

Imagens 
http://lookpic.com/O/i2/1650/9XgEY3eq.png 
http://lookpic.com/O/i2/1741/1R8Wo01f.png 
http://lookpic.com/O/i2/1329/6aHQGKj.png